<?xml version="1.0" standalone="yes"?>

<svg version="1.1" viewBox="0.0 0.0 238.7795275590551 314.88188976377955" fill="none" stroke="none" stroke-linecap="square" stroke-miterlimit="10" xmlns="http://www.w3.org/2000/svg" xmlns:xlink="http://www.w3.org/1999/xlink"><clipPath id="p.0"><path d="m0 0l238.77953 0l0 314.8819l-238.77953 0l0 -314.8819z" clip-rule="nonzero"></path></clipPath><g clip-path="url(#p.0)"><path fill="#000000" fill-opacity="0.0" d="m0 0l238.77953 0l0 314.8819l-238.77953 0z" fill-rule="evenodd"></path><path fill="#b6d7a8" d="m46.35302 30.002796l0 0c0 -4.734379 3.8379707 -8.57235 8.57235 -8.57235l141.46947 0c2.273529 0 4.453949 0.9031544 6.061569 2.5107822c1.6076355 1.6076279 2.510788 3.7880383 2.510788 6.0615673l0 34.288372c0 4.734375 -3.837967 8.57235 -8.572357 8.57235l-141.46947 0c-4.734379 0 -8.57235 -3.8379745 -8.57235 -8.57235z" fill-rule="evenodd"></path><path stroke="#000000" stroke-width="1.0" stroke-linejoin="round" stroke-linecap="butt" d="m46.35302 30.002796l0 0c0 -4.734379 3.8379707 -8.57235 8.57235 -8.57235l141.46947 0c2.273529 0 4.453949 0.9031544 6.061569 2.5107822c1.6076355 1.6076279 2.510788 3.7880383 2.510788 6.0615673l0 34.288372c0 4.734375 -3.837967 8.57235 -8.572357 8.57235l-141.46947 0c-4.734379 0 -8.57235 -3.8379745 -8.57235 -8.57235z" fill-rule="evenodd"></path><path fill="#000000" d="m86.281 30.97323l1.796875 0l0 7.843748q0 2.0625 -0.46875 3.265625q-0.453125 1.203125 -1.671875 1.96875q-1.203125 0.75 -3.171875 0.75q-1.90625 0 -3.125 -0.65625q-1.21875 -0.65625 -1.734375 -1.90625q-0.515625 -1.25 -0.515625 -3.421875l0 -7.843748l1.796875 0l0 7.843748q0 1.765625 0.328125 2.609375q0.328125 0.84375 1.125 1.296875q0.8125 0.453125 1.96875 0.453125q1.984375 0 2.828125 -0.890625q0.84375 -0.90625 0.84375 -3.46875l0 -7.843748zm3.6604462 10.656248l1.65625 -0.265625q0.140625 1.0 0.765625 1.53125q0.640625 0.515625 1.78125 0.515625q1.15625 0 1.703125 -0.46875q0.5625 -0.46875 0.5625 -1.09375q0 -0.5625 -0.484375 -0.890625q-0.34375 -0.21875 -1.703125 -0.5625q-1.84375 -0.46875 -2.5625 -0.796875q-0.703125 -0.34375 -1.078125 -0.9375q-0.359375 -0.609375 -0.359375 -1.328125q0 -0.65625 0.296875 -1.21875q0.3125 -0.5625 0.828125 -0.9375q0.390625 -0.28125 1.0625 -0.484375q0.671875 -0.203125 1.4375 -0.203125q1.171875 0 2.046875 0.34375q0.875 0.328125 1.28125 0.90625q0.421875 0.5625 0.578125 1.515625l-1.625 0.21875q-0.109375 -0.75 -0.65625 -1.171875q-0.53125 -0.4375 -1.5 -0.4375q-1.15625 0 -1.640625 0.390625q-0.484375 0.375 -0.484375 0.875q0 0.328125 0.203125 0.59375q0.203125 0.265625 0.640625 0.4375q0.25 0.09375 1.46875 0.4375q1.765625 0.46875 2.46875 0.765625q0.703125 0.296875 1.09375 0.875q0.40625 0.578125 0.40625 1.4375q0 0.828125 -0.484375 1.578125q-0.484375 0.734375 -1.40625 1.140625q-0.921875 0.390625 -2.078125 0.390625q-1.921875 0 -2.9375 -0.796875q-1.0 -0.796875 -1.28125 -2.359375zm16.75 -0.234375l1.71875 0.21875q-0.40625 1.5 -1.515625 2.34375q-1.09375 0.828125 -2.8125 0.828125q-2.15625 0 -3.421875 -1.328125q-1.265625 -1.328125 -1.265625 -3.734375q0 -2.484375 1.265625 -3.859375q1.28125 -1.375 3.328125 -1.375q1.984375 0 3.234375 1.34375q1.25 1.34375 1.25 3.796875q0 0.140625 -0.015625 0.4375l-7.34375 0q0.09375 1.625 0.921875 2.484375q0.828125 0.859375 2.0625 0.859375q0.90625 0 1.546875 -0.46875q0.65625 -0.484375 1.046875 -1.546875zm-5.484375 -2.703125l5.5 0q-0.109375 -1.234375 -0.625 -1.859375q-0.796875 -0.96875 -2.078125 -0.96875q-1.140625 0 -1.9375 0.78125q-0.78125 0.765625 -0.859375 2.046875zm9.094467 5.875l0 -9.859375l1.5 0l0 1.5q0.578125 -1.046875 1.0625 -1.375q0.484375 -0.34375 1.078125 -0.34375q0.84375 0 1.71875 0.546875l-0.578125 1.546875q-0.609375 -0.359375 -1.234375 -0.359375q-0.546875 0 -0.984375 0.328125q-0.421875 0.328125 -0.609375 0.90625q-0.28125 0.890625 -0.28125 1.953125l0 5.15625l-1.671875 0zm17.849098 -1.21875q-0.9374924 0.796875 -1.7968674 1.125q-0.859375 0.3125 -1.84375 0.3125q-1.609375 0 -2.484375 -0.78125q-0.875 -0.796875 -0.875 -2.03125q0 -0.734375 0.328125 -1.328125q0.328125 -0.59375 0.859375 -0.953125q0.53125 -0.359375 1.203125 -0.546875q0.5 -0.140625 1.484375 -0.25q2.03125 -0.25 2.9843674 -0.578125q0 -0.34375 0 -0.4375q0 -1.015625 -0.46874237 -1.4375q-0.640625 -0.5625 -1.90625 -0.5625q-1.171875 0 -1.734375 0.40625q-0.5625 0.40625 -0.828125 1.46875l-1.640625 -0.234375q0.234375 -1.046875 0.734375 -1.6875q0.515625 -0.640625 1.46875 -0.984375q0.96875 -0.359375 2.25 -0.359375q1.265625 0 2.046875 0.296875q0.7812424 0.296875 1.1562424 0.75q0.375 0.453125 0.515625 1.140625q0.09375 0.421875 0.09375 1.53125l0 2.234375q0 2.328125 0.09375 2.953125q0.109375 0.609375 0.4375 1.171875l-1.75 0q-0.265625 -0.515625 -0.328125 -1.21875zm-0.140625 -3.71875q-0.9062424 0.359375 -2.7343674 0.625q-1.03125 0.140625 -1.453125 0.328125q-0.421875 0.1875 -0.65625 0.546875q-0.234375 0.359375 -0.234375 0.796875q0 0.671875 0.5 1.125q0.515625 0.4375 1.484375 0.4375q0.96875 0 1.71875 -0.421875q0.75 -0.4375 1.109375 -1.15625q0.26561737 -0.578125 0.26561737 -1.671875l0 -0.609375zm10.516342 1.328125l1.640625 0.21875q-0.265625 1.6875 -1.375 2.65625q-1.109375 0.953125 -2.734375 0.953125q-2.015625 0 -3.25 -1.3125q-1.21875 -1.328125 -1.21875 -3.796875q0 -1.59375 0.515625 -2.78125q0.53125 -1.203125 1.609375 -1.796875q1.09375 -0.609375 2.359375 -0.609375q1.609375 0 2.625 0.8125q1.015625 0.8125 1.3125 2.3125l-1.625 0.25q-0.234375 -1.0 -0.828125 -1.5q-0.59375 -0.5 -1.421875 -0.5q-1.265625 0 -2.0625 0.90625q-0.78125 0.90625 -0.78125 2.859375q0 1.984375 0.765625 2.890625q0.765625 0.890625 1.984375 0.890625q0.984375 0 1.640625 -0.59375q0.65625 -0.609375 0.84375 -1.859375zm6.546875 2.109375l0.234375 1.484375q-0.703125 0.140625 -1.265625 0.140625q-0.90625 0 -1.40625 -0.28125q-0.5 -0.296875 -0.703125 -0.75q-0.203125 -0.46875 -0.203125 -1.984375l0 -5.65625l-1.234375 0l0 -1.3125l1.234375 0l0 -2.4375l1.65625 -0.9999981l0 3.437498l1.6875 0l0 1.3125l-1.6875 0l0 5.75q0 0.71875 0.078125 0.921875q0.09375 0.203125 0.296875 0.328125q0.203125 0.125 0.578125 0.125q0.265625 0 0.734375 -0.078125zm1.5426788 -10.1875l0 -1.9062481l1.671875 0l0 1.9062481l-1.671875 0zm0 11.6875l0 -9.859375l1.671875 0l0 9.859375l-1.671875 0zm3.5041962 -4.921875q0 -2.734375 1.53125 -4.0625q1.265625 -1.09375 3.09375 -1.09375q2.03125 0 3.3125 1.34375q1.296875 1.328125 1.296875 3.671875q0 1.90625 -0.578125 3.0q-0.5625 1.078125 -1.65625 1.6875q-1.078125 0.59375 -2.375 0.59375q-2.0625 0 -3.34375 -1.328125q-1.28125 -1.328125 -1.28125 -3.8125zm1.71875 0q0 1.890625 0.828125 2.828125q0.828125 0.9375 2.078125 0.9375q1.25 0 2.0625 -0.9375q0.828125 -0.953125 0.828125 -2.890625q0 -1.828125 -0.828125 -2.765625q-0.828125 -0.9375 -2.0625 -0.9375q-1.25 0 -2.078125 0.9375q-0.828125 0.9375 -0.828125 2.828125zm9.281967 4.921875l0 -9.859375l1.5 0l0 1.40625q1.09375 -1.625 3.140625 -1.625q0.890625 0 1.640625 0.328125q0.75 0.3125 1.109375 0.84375q0.375 0.515625 0.53125 1.21875q0.09375 0.46875 0.09375 1.625l0 6.0625l-1.671875 0l0 -6.0q0 -1.015625 -0.203125 -1.515625q-0.1875 -0.515625 -0.6875 -0.8125q-0.5 -0.296875 -1.171875 -0.296875q-1.0625 0 -1.84375 0.671875q-0.765625 0.671875 -0.765625 2.578125l0 5.375l-1.671875 0zm10.844467 -7.953125l0 -1.90625l1.90625 0l0 1.90625l-1.90625 0zm0 7.953125l0 -1.90625l1.90625 0l0 1.90625l-1.90625 0z" fill-rule="nonzero"></path><path fill="#000000" d="m100.21089 60.85073q0 -2.421875 1.4375 -4.015625q1.171875 -1.3125 3.09375 -1.3125q1.5 0 2.40625 0.9375q0.921875 0.9375 0.921875 2.53125q0 1.421875 -0.578125 2.65625q-0.578125 1.234375 -1.640625 1.890625q-1.0625 0.65625 -2.25 0.65625q-0.96875 0 -1.765625 -0.40625q-0.78125 -0.421875 -1.203125 -1.171875q-0.421875 -0.765625 -0.421875 -1.765625zm1.421875 -0.140625q0 1.171875 0.5625 1.78125q0.5625 0.609375 1.421875 0.609375q0.453125 0 0.890625 -0.1875q0.453125 -0.1875 0.828125 -0.5625q0.390625 -0.375 0.65625 -0.84375q0.28125 -0.484375 0.4375 -1.046875q0.25 -0.765625 0.25 -1.484375q0 -1.125 -0.578125 -1.734375q-0.5625 -0.625 -1.421875 -0.625q-0.65625 0 -1.203125 0.3125q-0.546875 0.3125 -1.0 0.921875q-0.4375 0.609375 -0.640625 1.421875q-0.203125 0.8125 -0.203125 1.4375zm7.2265625 3.296875l1.734375 -8.296875l1.28125 0l-0.296875 1.4375q0.828125 -0.84375 1.546875 -1.234375q0.734375 -0.390625 1.5 -0.390625q1.0 0 1.578125 0.546875q0.578125 0.546875 0.578125 1.453125q0 0.46875 -0.203125 1.453125l-1.0625 5.03125l-1.40625 0l1.09375 -5.265625q0.171875 -0.765625 0.171875 -1.125q0 -0.421875 -0.296875 -0.671875q-0.28125 -0.265625 -0.8125 -0.265625q-1.09375 0 -1.9375 0.78125q-0.84375 0.78125 -1.25 2.6875l-0.796875 3.859375l-1.421875 0zm18.023438 -4.03125l1.515625 0.203125q-0.71875 1.984375 -2.09375 3.015625q-1.375 1.015625 -3.09375 1.015625q-2.078125 0 -3.3125 -1.28125q-1.21875 -1.28125 -1.21875 -3.65625q0 -3.09375 1.859375 -5.109375q1.65625 -1.8125 4.125 -1.8125q1.8125 0 2.9375 0.984375q1.140625 0.96875 1.3125 2.625l-1.421875 0.125q-0.234375 -1.234375 -0.9375 -1.84375q-0.703125 -0.625 -1.828125 -0.625q-2.09375 0 -3.390625 1.875q-1.125 1.609375 -1.125 3.8125q0 1.765625 0.859375 2.703125q0.875 0.921875 2.265625 0.921875q1.1875 0 2.140625 -0.765625q0.96875 -0.78125 1.40625 -2.1875zm2.3203125 4.03125l2.390625 -11.453125l1.421875 0l-2.390625 11.453125l-1.421875 0zm5.6796875 -9.859375l0.328125 -1.59375l1.40625 0l-0.328125 1.59375l-1.40625 0zm-2.0625 9.859375l1.734375 -8.296875l1.40625 0l-1.734375 8.296875l-1.40625 0zm9.3359375 -3.03125l1.40625 0.15625q-0.53125 1.546875 -1.515625 2.3125q-0.96875 0.75 -2.21875 0.75q-1.359375 0 -2.203125 -0.875q-0.828125 -0.875 -0.828125 -2.453125q0 -1.359375 0.53125 -2.671875q0.546875 -1.3125 1.546875 -1.984375q1.0 -0.6875 2.296875 -0.6875q1.328125 0 2.109375 0.75q0.78125 0.75 0.78125 2.0l-1.390625 0.09375q0 -0.796875 -0.453125 -1.234375q-0.453125 -0.453125 -1.1875 -0.453125q-0.84375 0 -1.46875 0.546875q-0.625 0.53125 -0.984375 1.640625q-0.359375 1.09375 -0.359375 2.109375q0 1.0625 0.46875 1.59375q0.46875 0.53125 1.15625 0.53125q0.6875 0 1.3125 -0.515625q0.640625 -0.53125 1.0 -1.609375zm2.28125 3.03125l2.40625 -11.453125l1.40625 0l-1.484375 7.09375l4.125 -3.9375l1.859375 0l-3.53125 3.09375l2.140625 5.203125l-1.546875 0l-1.65625 -4.265625l-1.71875 1.484375l-0.578125 2.78125l-1.421875 0z" fill-rule="nonzero"></path><path fill="#ffe599" d="m15.57874 119.14191l0 0c0 -4.7343826 3.8379717 -8.57235 8.5723505 -8.57235l66.50884 0c2.273529 0 4.4539413 0.90315247 6.0615616 2.5107803c1.6076279 1.6076279 2.510788 3.7880402 2.510788 6.061569l0 34.28836c0 4.7343903 -3.8379745 8.572357 -8.57235 8.572357l-66.50884 0c-4.734379 0 -8.5723505 -3.837967 -8.5723505 -8.572357z" fill-rule="evenodd"></path><path stroke="#000000" stroke-width="1.0" stroke-linejoin="round" stroke-linecap="butt" d="m15.57874 119.14191l0 0c0 -4.7343826 3.8379717 -8.57235 8.5723505 -8.57235l66.50884 0c2.273529 0 4.4539413 0.90315247 6.0615616 2.5107803c1.6076279 1.6076279 2.510788 3.7880402 2.510788 6.061569l0 34.28836c0 4.7343903 -3.8379745 8.572357 -8.57235 8.572357l-66.50884 0c-4.734379 0 -8.5723505 -3.837967 -8.5723505 -8.572357z" fill-rule="evenodd"></path><path fill="#000000" d="m39.22814 143.20609l5.234375 -13.59375l1.9375 0l5.562504 13.59375l-2.0468788 0l-1.59375 -4.125l-5.6875 0l-1.484375 4.125l-1.921875 0zm3.921875 -5.578125l4.609375 0l-1.40625 -3.78125q-0.65625 -1.703125 -0.96875 -2.8125q-0.265625 1.3125 -0.734375 2.59375l-1.5 4.0zm9.802952 -6.078125l0 -1.9375l1.65625 0l0 1.9375l-1.65625 0zm-2.125 15.484375l0.3125 -1.421875q0.5 0.125 0.796875 0.125q0.515625 0 0.765625 -0.34375q0.25 -0.328125 0.25 -1.6875l0 -10.359375l1.65625 0l0 10.390625q0 1.828125 -0.46875 2.546875q-0.59375 0.921875 -2.0 0.921875q-0.671875 0 -1.3125 -0.171875zm12.707321 -5.046875q-0.9375 0.796875 -1.796875 1.125q-0.859375 0.3125 -1.84375 0.3125q-1.609375 0 -2.484375 -0.78125q-0.875 -0.796875 -0.875 -2.03125q0 -0.734375 0.328125 -1.328125q0.328125 -0.59375 0.859375 -0.953125q0.53125 -0.359375 1.203125 -0.546875q0.5 -0.140625 1.484375 -0.25q2.03125 -0.25 2.984375 -0.578125q0 -0.34375 0 -0.4375q0 -1.015625 -0.46875 -1.4375q-0.640625 -0.5625 -1.90625 -0.5625q-1.171875 0 -1.734375 0.40625q-0.5625 0.40625 -0.828125 1.46875l-1.640625 -0.234375q0.234375 -1.046875 0.734375 -1.6875q0.515625 -0.640625 1.46875 -0.984375q0.96875 -0.359375 2.25 -0.359375q1.265625 0 2.046875 0.296875q0.7812462 0.296875 1.1562462 0.75q0.375 0.453125 0.515625 1.140625q0.09375 0.421875 0.09375 1.53125l0 2.234375q0 2.328125 0.09375 2.953125q0.109375 0.609375 0.4375 1.171875l-1.7499962 0q-0.265625 -0.515625 -0.328125 -1.21875zm-0.140625 -3.71875q-0.90625 0.359375 -2.734375 0.625q-1.03125 0.140625 -1.453125 0.328125q-0.421875 0.1875 -0.65625 0.546875q-0.234375 0.359375 -0.234375 0.796875q0 0.671875 0.5 1.125q0.515625 0.4375 1.484375 0.4375q0.96875 0 1.71875 -0.421875q0.75 -0.4375 1.109375 -1.15625q0.265625 -0.578125 0.265625 -1.671875l0 -0.609375zm2.9694633 4.9375l3.59375 -5.125l-3.328125 -4.734375l2.09375 0l1.515625 2.3125q0.421875 0.65625 0.671875 1.109375q0.421875 -0.609375 0.765625 -1.09375l1.65625 -2.328125l1.984375 0l-3.390625 4.640625l3.65625 5.21875l-2.046875 0l-2.03125 -3.0625l-0.53125 -0.828125l-2.59375 3.890625l-2.015625 0z" fill-rule="nonzero"></path><path fill="#9fc5e8" d="m26.094488 211.52518l0 0c0 -6.5260773 5.290432 -11.816513 11.816511 -11.816513l176.96541 0c3.1339264 0 6.139511 1.2449493 8.35553 3.460968c2.216034 2.216034 3.4609833 5.2216034 3.4609833 8.355545l0 47.264618c0 6.526062 -5.290436 11.816498 -11.816513 11.816498l-176.96541 0c-6.526079 0 -11.816511 -5.290436 -11.816511 -11.816498z" fill-rule="evenodd"></path><path stroke="#000000" stroke-width="1.0" stroke-linejoin="round" stroke-linecap="butt" d="m26.094488 211.52518l0 0c0 -6.5260773 5.290432 -11.816513 11.816511 -11.816513l176.96541 0c3.1339264 0 6.139511 1.2449493 8.35553 3.460968c2.216034 2.216034 3.4609833 5.2216034 3.4609833 8.355545l0 47.264618c0 6.526062 -5.290436 11.816498 -11.816513 11.816498l-176.96541 0c-6.526079 0 -11.816511 -5.290436 -11.816511 -11.816498z" fill-rule="evenodd"></path><path fill="#000000" d="m51.75172 210.48373l1.796875 0l0 7.84375q0 2.0625 -0.46875 3.265625q-0.453125 1.203125 -1.671875 1.96875q-1.203125 0.75 -3.171875 0.75q-1.90625 0 -3.125 -0.65625q-1.21875 -0.65625 -1.734375 -1.90625q-0.515625 -1.25 -0.515625 -3.421875l0 -7.84375l1.796875 0l0 7.84375q0 1.765625 0.328125 2.609375q0.328125 0.84375 1.125 1.296875q0.8125 0.453125 1.96875 0.453125q1.984375 0 2.828125 -0.890625q0.84375 -0.90625 0.84375 -3.46875l0 -7.84375zm4.332321 17.375l0 -13.640625l1.53125 0l0 1.28125q0.53125 -0.75 1.203125 -1.125q0.6875 -0.375 1.640625 -0.375q1.265625 0 2.234375 0.65625q0.96875 0.640625 1.4531288 1.828125q0.5 1.1875 0.5 2.59375q0 1.515625 -0.546875 2.734375q-0.5468788 1.203125 -1.5781288 1.84375q-1.03125 0.640625 -2.171875 0.640625q-0.84375 0 -1.515625 -0.34375q-0.65625 -0.359375 -1.078125 -0.890625l0 4.796875l-1.671875 0zm1.515625 -8.65625q0 1.90625 0.765625 2.8125q0.78125 0.90625 1.875 0.90625q1.109375 0 1.890625 -0.9375q0.796875 -0.9375 0.796875 -2.921875q0 -1.875 -0.78125 -2.8125q-0.765625 -0.9375 -1.84375 -0.9375q-1.0625 0 -1.890625 1.0q-0.8125 1.0 -0.8125 2.890625zm15.250721 4.875l0 -1.25q-0.9375 1.46875 -2.75 1.46875q-1.171875 0 -2.171875 -0.640625q-0.984375 -0.65625 -1.53125 -1.8125q-0.53125 -1.171875 -0.53125 -2.6875q0 -1.46875 0.484375 -2.671875q0.5 -1.203125 1.46875 -1.84375q0.984375 -0.640625 2.203125 -0.640625q0.890625 0 1.578125 0.375q0.703125 0.375 1.140625 0.984375l0 -4.875l1.65625 0l0 13.59375l-1.546875 0zm-5.28125 -4.921875q0 1.890625 0.796875 2.828125q0.8125 0.9375 1.890625 0.9375q1.09375 0 1.859375 -0.890625q0.765625 -0.890625 0.765625 -2.734375q0 -2.015625 -0.78125 -2.953125q-0.78125 -0.953125 -1.921875 -0.953125q-1.109375 0 -1.859375 0.90625q-0.75 0.90625 -0.75 2.859375zm15.703842 3.703125q-0.9375 0.796875 -1.796875 1.125q-0.859375 0.3125 -1.84375 0.3125q-1.609375 0 -2.484375 -0.78125q-0.875 -0.796875 -0.875 -2.03125q0 -0.734375 0.328125 -1.328125q0.328125 -0.59375 0.859375 -0.953125q0.53125 -0.359375 1.203125 -0.546875q0.5 -0.140625 1.484375 -0.25q2.03125 -0.25 2.984375 -0.578125q0 -0.34375 0 -0.4375q0 -1.015625 -0.46875 -1.4375q-0.640625 -0.5625 -1.90625 -0.5625q-1.171875 0 -1.734375 0.40625q-0.5625 0.40625 -0.828125 1.46875l-1.640625 -0.234375q0.234375 -1.046875 0.734375 -1.6875q0.515625 -0.640625 1.46875 -0.984375q0.96875 -0.359375 2.25 -0.359375q1.265625 0 2.046875 0.296875q0.78125 0.296875 1.15625 0.75q0.375 0.453125 0.515625 1.140625q0.09375 0.421875 0.09375 1.53125l0 2.234375q0 2.328125 0.09375 2.953125q0.109375 0.609375 0.4375 1.171875l-1.75 0q-0.265625 -0.515625 -0.328125 -1.21875zm-0.140625 -3.71875q-0.90625 0.359375 -2.734375 0.625q-1.03125 0.140625 -1.453125 0.328125q-0.421875 0.1875 -0.65625 0.546875q-0.234375 0.359375 -0.234375 0.796875q0 0.671875 0.5 1.125q0.515625 0.4375 1.484375 0.4375q0.96875 0 1.71875 -0.421875q0.75 -0.4375 1.109375 -1.15625q0.265625 -0.578125 0.265625 -1.671875l0 -0.609375zm7.735092 3.4375l0.234375 1.484375q-0.703125 0.140625 -1.265625 0.140625q-0.90625 0 -1.40625 -0.28125q-0.5 -0.296875 -0.703125 -0.75q-0.203125 -0.46875 -0.203125 -1.984375l0 -5.65625l-1.234375 0l0 -1.3125l1.234375 0l0 -2.4375l1.65625 -1.0l0 3.4375l1.6875 0l0 1.3125l-1.6875 0l0 5.75q0 0.71875 0.078125 0.921875q0.09375 0.203125 0.296875 0.328125q0.203125 0.125 0.578125 0.125q0.265625 0 0.734375 -0.078125zm8.277054 -1.671875l1.71875 0.21875q-0.40625 1.5 -1.515625 2.34375q-1.09375 0.828125 -2.8125 0.828125q-2.15625 0 -3.421875 -1.328125q-1.265625 -1.328125 -1.265625 -3.734375q0 -2.484375 1.265625 -3.859375q1.28125 -1.375 3.328125 -1.375q1.984375 0 3.234375 1.34375q1.25 1.34375 1.25 3.796875q0 0.140625 -0.015625 0.4375l-7.34375 0q0.09375 1.625 0.921875 2.484375q0.828125 0.859375 2.0625 0.859375q0.90625 0 1.546875 -0.46875q0.65625 -0.484375 1.046875 -1.546875zm-5.484375 -2.703125l5.5 0q-0.109375 -1.234375 -0.625 -1.859375q-0.796875 -0.96875 -2.078125 -0.96875q-1.140625 0 -1.9375 0.78125q-0.78125 0.765625 -0.859375 2.046875zm14.512146 5.875l0 -13.59375l4.6875 0q1.578125 0 2.421875 0.1875q1.15625 0.265625 1.984375 0.96875q1.078125 0.921875 1.609375 2.34375q0.53125 1.40625 0.53125 3.21875q0 1.546875 -0.359375 2.75q-0.359375 1.1875 -0.921875 1.984375q-0.5625 0.78125 -1.234375 1.234375q-0.671875 0.4375 -1.625 0.671875q-0.953125 0.234375 -2.1875 0.234375l-4.90625 0zm1.796875 -1.609375l2.90625 0q1.34375 0 2.109375 -0.25q0.765625 -0.25 1.21875 -0.703125q0.640625 -0.640625 1.0 -1.71875q0.359375 -1.078125 0.359375 -2.625q0 -2.125 -0.703125 -3.265625q-0.703125 -1.15625 -1.703125 -1.546875q-0.71875 -0.28125 -2.328125 -0.28125l-2.859375 0l0 10.390625zm11.129196 -5.015625q0 -3.390625 1.8125 -5.296875q1.828125 -1.921875 4.703125 -1.921875q1.875 0 3.390625 0.90625q1.515625 0.890625 2.296875 2.5q0.796875 1.609375 0.796875 3.65625q0 2.0625 -0.84375 3.703125q-0.828125 1.625 -2.359375 2.46875q-1.53125 0.84375 -3.296875 0.84375q-1.921875 0 -3.4375 -0.921875q-1.5 -0.9375 -2.28125 -2.53125q-0.78125 -1.609375 -0.78125 -3.40625zm1.859375 0.03125q0 2.453125 1.3125 3.875q1.328125 1.40625 3.3125 1.40625q2.03125 0 3.34375 -1.421875q1.3125 -1.4375 1.3125 -4.0625q0 -1.65625 -0.5625 -2.890625q-0.546875 -1.234375 -1.640625 -1.921875q-1.078125 -0.6875 -2.421875 -0.6875q-1.90625 0 -3.28125 1.3125q-1.375 1.3125 -1.375 4.390625zm13.136429 6.59375l0 -13.59375l2.71875 0l3.21875 9.625q0.4375 1.34375 0.640625 2.015625q0.234375 -0.75 0.734375 -2.1875l3.25 -9.453125l2.421875 0l0 13.59375l-1.734375 0l0 -11.390625l-3.953125 11.390625l-1.625 0l-3.9375 -11.578125l0 11.578125l-1.734375 0zm20.567856 0l0 -9.859375l1.4999847 0l0 1.40625q1.09375 -1.625 3.140625 -1.625q0.890625 0 1.640625 0.328125q0.75 0.3125 1.109375 0.84375q0.375 0.515625 0.53125 1.21875q0.09375 0.46875 0.09375 1.625l0 6.0625l-1.671875 0l0 -6.0q0 -1.015625 -0.203125 -1.515625q-0.1875 -0.515625 -0.6875 -0.8125q-0.5 -0.296875 -1.171875 -0.296875q-1.0625 0 -1.84375 0.671875q-0.765625 0.671875 -0.765625 2.578125l0 5.375l-1.6718597 0zm9.750717 -4.921875q0 -2.734375 1.53125 -4.0625q1.265625 -1.09375 3.09375 -1.09375q2.03125 0 3.3125 1.34375q1.296875 1.328125 1.296875 3.671875q0 1.90625 -0.578125 3.0q-0.5625 1.078125 -1.65625 1.6875q-1.078125 0.59375 -2.375 0.59375q-2.0625 0 -3.34375 -1.328125q-1.28125 -1.328125 -1.28125 -3.8125zm1.71875 0q0 1.890625 0.828125 2.828125q0.828125 0.9375 2.078125 0.9375q1.25 0 2.0625 -0.9375q0.828125 -0.953125 0.828125 -2.890625q0 -1.828125 -0.828125 -2.765625q-0.828125 -0.9375 -2.0625 -0.9375q-1.25 0 -2.078125 0.9375q-0.828125 0.9375 -0.828125 2.828125zm15.672577 4.921875l0 -1.25q-0.9375 1.46875 -2.75 1.46875q-1.171875 0 -2.171875 -0.640625q-0.984375 -0.65625 -1.53125 -1.8125q-0.53125 -1.171875 -0.53125 -2.6875q0 -1.46875 0.484375 -2.671875q0.5 -1.203125 1.46875 -1.84375q0.984375 -0.640625 2.203125 -0.640625q0.890625 0 1.578125 0.375q0.703125 0.375 1.140625 0.984375l0 -4.875l1.65625 0l0 13.59375l-1.546875 0zm-5.28125 -4.921875q0 1.890625 0.796875 2.828125q0.8125 0.9375 1.890625 0.9375q1.09375 0 1.859375 -0.890625q0.765625 -0.890625 0.765625 -2.734375q0 -2.015625 -0.78125 -2.953125q-0.78125 -0.953125 -1.921875 -0.953125q-1.109375 0 -1.859375 0.90625q-0.75 0.90625 -0.75 2.859375zm16.016357 1.75l1.71875 0.21875q-0.40625 1.5 -1.515625 2.34375q-1.09375 0.828125 -2.8125 0.828125q-2.15625 0 -3.421875 -1.328125q-1.265625 -1.328125 -1.265625 -3.734375q0 -2.484375 1.265625 -3.859375q1.28125 -1.375 3.328125 -1.375q1.984375 0 3.234375 1.34375q1.25 1.34375 1.25 3.796875q0 0.140625 -0.015625 0.4375l-7.34375 0q0.09375 1.625 0.921875 2.484375q0.828125 0.859375 2.0625 0.859375q0.90625 0 1.546875 -0.46875q0.65625 -0.484375 1.046875 -1.546875zm-5.484375 -2.703125l5.5 0q-0.109375 -1.234375 -0.625 -1.859375q-0.796875 -0.96875 -2.078125 -0.96875q-1.140625 0 -1.9375 0.78125q-0.78125 0.765625 -0.859375 2.046875zm8.438202 2.9375l1.65625 -0.265625q0.140625 1.0 0.765625 1.53125q0.640625 0.515625 1.78125 0.515625q1.15625 0 1.703125 -0.46875q0.5625 -0.46875 0.5625 -1.09375q0 -0.5625 -0.484375 -0.890625q-0.34375 -0.21875 -1.703125 -0.5625q-1.84375 -0.46875 -2.5625 -0.796875q-0.703125 -0.34375 -1.078125 -0.9375q-0.359375 -0.609375 -0.359375 -1.328125q0 -0.65625 0.296875 -1.21875q0.3125 -0.5625 0.828125 -0.9375q0.390625 -0.28125 1.0625 -0.484375q0.671875 -0.203125 1.4375 -0.203125q1.171875 0 2.046875 0.34375q0.875 0.328125 1.28125 0.90625q0.421875 0.5625 0.578125 1.515625l-1.625 0.21875q-0.109375 -0.75 -0.65625 -1.171875q-0.53125 -0.4375 -1.5 -0.4375q-1.15625 0 -1.640625 0.390625q-0.484375 0.375 -0.484375 0.875q0 0.328125 0.203125 0.59375q0.203125 0.265625 0.640625 0.4375q0.25 0.09375 1.46875 0.4375q1.765625 0.46875 2.46875 0.765625q0.703125 0.296875 1.09375 0.875q0.40625 0.578125 0.40625 1.4375q0 0.828125 -0.484375 1.578125q-0.484375 0.734375 -1.40625 1.140625q-0.921875 0.390625 -2.078125 0.390625q-1.921875 0 -2.9375 -0.796875q-1.0 -0.796875 -1.28125 -2.359375zm10.46875 -5.015625l0 -1.90625l1.90625 0l0 1.90625l-1.90625 0zm0 7.953125l0 -1.90625l1.90625 0l0 1.90625l-1.90625 0z" fill-rule="nonzero"></path><path fill="#000000" d="m46.12766 231.28435l1.046875 0l-0.1875 1.4375q0.390625 0.03125 0.765625 0.09375q0.390625 0.046875 0.71875 0.140625l0 1.125q-0.40625 -0.109375 -0.8125 -0.171875q-0.40625 -0.078125 -0.8125 -0.109375l-0.40625 3.125q0.484375 0.1875 0.96875 0.421875q0.484375 0.21875 0.859375 0.53125q0.390625 0.296875 0.625 0.71875q0.25 0.40625 0.25 0.984375q0 0.625 -0.25 1.109375q-0.25 0.46875 -0.703125 0.796875q-0.4375 0.328125 -1.078125 0.515625q-0.625 0.1875 -1.375 0.21875l-0.25 1.75l-1.0625 0l0.234375 -1.75q-0.59375 -0.046875 -1.140625 -0.125q-0.53125 -0.09375 -0.921875 -0.1875l0 -1.21875q0.46875 0.15625 1.0 0.265625q0.546875 0.109375 1.21875 0.140625l0.4375 -3.296875q-0.484375 -0.1875 -0.953125 -0.390625q-0.453125 -0.21875 -0.8125 -0.515625q-0.359375 -0.296875 -0.59375 -0.703125q-0.21875 -0.40625 -0.21875 -0.953125q0 -0.453125 0.1875 -0.890625q0.1875 -0.453125 0.59375 -0.796875q0.40625 -0.359375 1.015625 -0.59375q0.609375 -0.234375 1.46875 -0.28125l0.1875 -1.390625zm-0.34375 2.5q-0.90625 0.078125 -1.328125 0.421875q-0.421875 0.34375 -0.421875 0.890625q0 0.5 0.34375 0.828125q0.34375 0.328125 1.046875 0.59375l0.359375 -2.734375zm0.09375 7.3125q0.984375 -0.078125 1.4375 -0.4375q0.453125 -0.375 0.453125 -1.0q0 -0.265625 -0.09375 -0.46875q-0.09375 -0.21875 -0.296875 -0.375q-0.1875 -0.171875 -0.46875 -0.3125q-0.28125 -0.15625 -0.65625 -0.296875l-0.375 2.890625zm9.54245 4.21875q-3.375 -3.125 -3.375 -6.921875q0 -0.875 0.171875 -1.75q0.1875 -0.890625 0.578125 -1.78125q0.40625 -0.890625 1.0625 -1.765625q0.65625 -0.890625 1.59375 -1.765625l0.734375 0.75q-2.84375 2.8125 -2.84375 6.21875q0 1.703125 0.71875 3.28125q0.71875 1.5625 2.125 2.953125l-0.765625 0.78125z" fill-rule="nonzero"></path><path fill="#a52a2a" d="m61.415684 231.89372l-0.21875 3.421875l-1.1875 0l-0.21875 -3.421875l1.625 0zm2.8437538 0l-0.203125 3.421875l-1.2031288 0l-0.21875 -3.421875l1.6250038 0zm9.151825 6.53125q0 0.984375 -0.28125 1.71875q-0.265625 0.734375 -0.75 1.21875q-0.484375 0.484375 -1.140625 0.734375q-0.65625 0.234375 -1.421875 0.234375q-0.359375 0 -0.703125 -0.046875q-0.34375 -0.03125 -0.703125 -0.125l0 3.078125l-1.28125 0l0 -10.359375l1.140625 0l0.078125 1.234375q0.546875 -0.75 1.171875 -1.046875q0.625 -0.3125 1.34375 -0.3125q0.625 0 1.09375 0.265625q0.484375 0.265625 0.8125 0.75q0.328125 0.46875 0.484375 1.15625q0.15625 0.671875 0.15625 1.5zm-1.296875 0.0625q0 -0.578125 -0.09375 -1.0625q-0.078125 -0.484375 -0.265625 -0.828125q-0.171875 -0.34375 -0.46875 -0.53125q-0.28125 -0.203125 -0.671875 -0.203125q-0.25 0 -0.5 0.078125q-0.25 0.078125 -0.515625 0.265625q-0.265625 0.171875 -0.5625 0.46875q-0.296875 0.296875 -0.625 0.734375l0 3.5625q0.34375 0.15625 0.734375 0.25q0.390625 0.078125 0.765625 0.078125q1.03125 0 1.609375 -0.703125q0.59375 -0.703125 0.59375 -2.109375zm5.41745 -6.59375l-0.21875 3.421875l-1.1875 0l-0.21875 -3.421875l1.625 0zm2.84375 0l-0.203125 3.421875l-1.203125 0l-0.21875 -3.421875l1.625 0z" fill-rule="nonzero"></path><path fill="#000000" d="m84.74616 231.33122q3.375 3.125 3.375 6.953125q0 0.796875 -0.15625 1.65625q-0.15625 0.84375 -0.546875 1.734375q-0.390625 0.890625 -1.046875 1.796875q-0.65625 0.921875 -1.65625 1.84375l-0.734375 -0.75q1.421875 -1.421875 2.125 -2.953125q0.703125 -1.546875 0.703125 -3.234375q0 -3.484375 -2.828125 -6.265625l0.765625 -0.78125zm9.4487 8.59375q0.25 0 0.46875 0.109375q0.234375 0.09375 0.390625 0.265625q0.171875 0.15625 0.265625 0.390625q0.09375 0.21875 0.09375 0.46875q0 0.25 -0.09375 0.46875q-0.09375 0.21875 -0.265625 0.390625q-0.15625 0.15625 -0.390625 0.25q-0.21875 0.09375 -0.46875 0.09375q-0.25 0 -0.46875 -0.09375q-0.21875 -0.09375 -0.390625 -0.25q-0.15625 -0.171875 -0.265625 -0.390625q-0.09375 -0.21875 -0.09375 -0.46875q0 -0.25 0.09375 -0.46875q0.109375 -0.234375 0.265625 -0.390625q0.171875 -0.171875 0.390625 -0.265625q0.21875 -0.109375 0.46875 -0.109375zm9.8862 2.3125l-0.03125 -0.984375q-0.59375 0.59375 -1.21875 0.859375q-0.609375 0.25 -1.296875 0.25q-0.625 0 -1.078125 -0.15625q-0.4375 -0.15625 -0.734375 -0.4375q-0.28125 -0.28125 -0.421875 -0.65625q-0.140625 -0.390625 -0.140625 -0.84375q0 -1.09375 0.828125 -1.71875q0.828125 -0.640625 2.4375 -0.640625l1.515625 0l0 -0.640625q0 -0.65625 -0.421875 -1.046875q-0.40625 -0.390625 -1.265625 -0.390625q-0.625 0 -1.234375 0.140625q-0.59375 0.140625 -1.234375 0.40625l0 -1.15625q0.234375 -0.09375 0.53125 -0.171875q0.296875 -0.078125 0.625 -0.140625q0.328125 -0.078125 0.6875 -0.109375q0.359375 -0.046875 0.734375 -0.046875q0.65625 0 1.1875 0.15625q0.546875 0.140625 0.90625 0.4375q0.375 0.296875 0.5625 0.75q0.203125 0.453125 0.203125 1.078125l0 5.0625l-1.140625 0zm-0.140625 -3.34375l-1.609375 0q-0.484375 0 -0.828125 0.09375q-0.34375 0.09375 -0.5625 0.265625q-0.21875 0.171875 -0.328125 0.421875q-0.09375 0.25 -0.09375 0.5625q0 0.203125 0.0625 0.40625q0.0625 0.1875 0.203125 0.34375q0.15625 0.140625 0.390625 0.234375q0.234375 0.078125 0.5625 0.078125q0.4375 0 1.0 -0.265625q0.578125 -0.265625 1.203125 -0.84375l0 -1.296875zm9.7612 -0.46875q0 0.984375 -0.28125 1.71875q-0.265625 0.734375 -0.75 1.21875q-0.484375 0.484375 -1.140625 0.734375q-0.65625 0.234375 -1.421875 0.234375q-0.359375 0 -0.703125 -0.046875q-0.34375 -0.03125 -0.703125 -0.125l0 3.078125l-1.28125 0l0 -10.359375l1.140625 0l0.078125 1.234375q0.546875 -0.75 1.171875 -1.046875q0.625 -0.3125 1.34375 -0.3125q0.625 0 1.09375 0.265625q0.484375 0.265625 0.8125 0.75q0.328125 0.46875 0.484375 1.15625q0.15625 0.671875 0.15625 1.5zm-1.296875 0.0625q0 -0.578125 -0.09375 -1.0625q-0.078125 -0.484375 -0.265625 -0.828125q-0.171875 -0.34375 -0.46875 -0.53125q-0.28125 -0.203125 -0.671875 -0.203125q-0.25 0 -0.5 0.078125q-0.25 0.078125 -0.515625 0.265625q-0.265625 0.171875 -0.5625 0.46875q-0.296875 0.296875 -0.625 0.734375l0 3.5625q0.34375 0.15625 0.734375 0.25q0.390625 0.078125 0.765625 0.078125q1.03125 0 1.609375 -0.703125q0.59375 -0.703125 0.59375 -2.109375zm9.35495 -0.0625q0 0.984375 -0.28125 1.71875q-0.265625 0.734375 -0.75 1.21875q-0.484375 0.484375 -1.140625 0.734375q-0.65625 0.234375 -1.421875 0.234375q-0.359375 0 -0.703125 -0.046875q-0.34375 -0.03125 -0.703125 -0.125l0 3.078125l-1.28125 0l0 -10.359375l1.140625 0l0.078125 1.234375q0.546875 -0.75 1.171875 -1.046875q0.625 -0.3125 1.34375 -0.3125q0.625 0 1.09375 0.265625q0.484375 0.265625 0.8125 0.75q0.328125 0.46875 0.484375 1.15625q0.15625 0.671875 0.15625 1.5zm-1.296875 0.0625q0 -0.578125 -0.09375 -1.0625q-0.078125 -0.484375 -0.265625 -0.828125q-0.171875 -0.34375 -0.46875 -0.53125q-0.28125 -0.203125 -0.671875 -0.203125q-0.25 0 -0.5 0.078125q-0.25 0.078125 -0.515625 0.265625q-0.265625 0.171875 -0.5625 0.46875q-0.296875 0.296875 -0.625 0.734375l0 3.5625q0.34375 0.15625 0.734375 0.25q0.390625 0.078125 0.765625 0.078125q1.03125 0 1.609375 -0.703125q0.59375 -0.703125 0.59375 -2.109375zm9.292442 -0.3125q0 0.265625 -0.015625 0.453125q0 0.1875 -0.015625 0.34375l-5.1718674 0q0 1.125 0.625 1.734375q0.640625 0.59375 1.828125 0.59375q0.3125 0 0.640625 -0.015625q0.328125 -0.03125 0.6249924 -0.0625q0.296875 -0.046875 0.5625 -0.09375q0.28125 -0.0625 0.515625 -0.140625l0 1.046875q-0.515625 0.15625 -1.171875 0.234375q-0.6562424 0.09375 -1.3593674 0.09375q-0.9375 0 -1.625 -0.25q-0.6875 -0.25 -1.125 -0.734375q-0.421875 -0.5 -0.640625 -1.203125q-0.203125 -0.703125 -0.203125 -1.59375q0 -0.78125 0.21875 -1.46875q0.21875 -0.703125 0.640625 -1.21875q0.4375 -0.53125 1.0625 -0.828125q0.625 -0.3125 1.421875 -0.3125q0.765625 0 1.359375 0.25q0.5937424 0.234375 0.9999924 0.6875q0.40625 0.4375 0.609375 1.078125q0.21875 0.625 0.21875 1.40625zm-1.328125 -0.1875q0.015625 -0.484375 -0.109375 -0.890625q-0.109375 -0.40625 -0.35936737 -0.703125q-0.234375 -0.296875 -0.609375 -0.453125q-0.359375 -0.171875 -0.84375 -0.171875q-0.421875 0 -0.765625 0.171875q-0.34375 0.15625 -0.59375 0.453125q-0.25 0.28125 -0.40625 0.703125q-0.140625 0.40625 -0.1875 0.890625l3.8749924 0zm3.16745 -3.109375l1.140625 0l0.046875 1.1875q0.328125 -0.375 0.625 -0.625q0.296875 -0.25 0.578125 -0.40625q0.296875 -0.15625 0.59375 -0.21875q0.296875 -0.0625 0.625 -0.0625q1.140625 0 1.71875 0.671875q0.578125 0.671875 0.578125 2.015625l0 4.796875l-1.265625 0l0 -4.6875q0 -0.875 -0.328125 -1.28125q-0.328125 -0.421875 -0.953125 -0.421875q-0.234375 0 -0.46875 0.078125q-0.21875 0.0625 -0.46875 0.234375q-0.234375 0.171875 -0.515625 0.46875q-0.28125 0.296875 -0.625 0.734375l0 4.875l-1.28125 0l0 -7.359375zm7.683075 3.84375q0 -0.9375 0.25 -1.671875q0.265625 -0.734375 0.734375 -1.234375q0.46875 -0.5 1.125 -0.75q0.671875 -0.265625 1.484375 -0.265625q0.359375 0 0.6875 0.046875q0.34375 0.03125 0.671875 0.125l0 -3.078125l1.28125 0l0 10.34375l-1.140625 0l-0.03125 -1.390625q-0.546875 0.78125 -1.171875 1.15625q-0.609375 0.359375 -1.34375 0.359375q-0.625 0 -1.109375 -0.25q-0.46875 -0.265625 -0.796875 -0.75q-0.3125 -0.484375 -0.484375 -1.15625q-0.15625 -0.671875 -0.15625 -1.484375zm1.3125 -0.09375q0 1.34375 0.390625 2.0q0.390625 0.65625 1.109375 0.65625q0.484375 0 1.015625 -0.4375q0.53125 -0.4375 1.125 -1.28125l0 -3.421875q-0.3125 -0.140625 -0.6875 -0.21875q-0.375 -0.078125 -0.75 -0.078125q-1.046875 0 -1.625 0.671875q-0.578125 0.671875 -0.578125 2.109375zm11.526825 6.6875q-3.375 -3.125 -3.375 -6.921875q0 -0.875 0.171875 -1.75q0.1875 -0.890625 0.578125 -1.78125q0.40625 -0.890625 1.0625 -1.765625q0.65625 -0.890625 1.59375 -1.765625l0.734375 0.75q-2.84375 2.8125 -2.84375 6.21875q0 1.703125 0.71875 3.28125q0.71875 1.5625 2.125 2.953125l-0.765625 0.78125z" fill-rule="nonzero"></path><path fill="#a52a2a" d="m158.11258 231.89372l-0.21875 3.421875l-1.1875 0l-0.21875 -3.421875l1.625 0zm2.84375 0l-0.203125 3.421875l-1.203125 0l-0.21875 -3.421875l1.625 0zm8.776825 10.34375l-1.140625 0l-0.046875 -1.1875q-0.328125 0.375 -0.625 0.640625q-0.296875 0.25 -0.59375 0.40625q-0.28125 0.140625 -0.578125 0.203125q-0.296875 0.0625 -0.625 0.0625q-1.140625 0 -1.71875 -0.65625q-0.578125 -0.671875 -0.578125 -2.015625l0 -4.8125l1.28125 0l0 4.703125q0 1.703125 1.265625 1.703125q0.234375 0 0.453125 -0.0625q0.234375 -0.078125 0.46875 -0.25q0.25 -0.171875 0.53125 -0.46875q0.28125 -0.296875 0.640625 -0.734375l0 -4.890625l1.265625 0l0 7.359375zm7.97995 -2.0q0 0.375 -0.140625 0.6875q-0.125 0.3125 -0.359375 0.546875q-0.21875 0.234375 -0.53125 0.40625q-0.296875 0.171875 -0.640625 0.28125q-0.328125 0.109375 -0.6875 0.15625q-0.359375 0.046875 -0.703125 0.046875q-0.75 0 -1.375 -0.0625q-0.625 -0.0625 -1.234375 -0.203125l0 -1.171875q0.65625 0.171875 1.28125 0.28125q0.640625 0.09375 1.265625 0.09375q0.921875 0 1.359375 -0.25q0.4375 -0.25 0.4375 -0.71875q0 -0.203125 -0.078125 -0.359375q-0.0625 -0.15625 -0.25 -0.296875q-0.171875 -0.140625 -0.5625 -0.296875q-0.375 -0.15625 -1.046875 -0.34375q-0.5 -0.15625 -0.921875 -0.34375q-0.421875 -0.1875 -0.734375 -0.4375q-0.296875 -0.25 -0.484375 -0.59375q-0.171875 -0.34375 -0.171875 -0.8125q0 -0.3125 0.140625 -0.671875q0.15625 -0.375 0.5 -0.6875q0.34375 -0.3125 0.921875 -0.515625q0.59375 -0.21875 1.46875 -0.21875q0.4375 0 0.953125 0.046875q0.53125 0.046875 1.109375 0.171875l0 1.125q-0.609375 -0.140625 -1.15625 -0.203125q-0.53125 -0.078125 -0.921875 -0.078125q-0.46875 0 -0.796875 0.078125q-0.328125 0.0625 -0.53125 0.203125q-0.203125 0.125 -0.296875 0.296875q-0.078125 0.171875 -0.078125 0.359375q0 0.203125 0.078125 0.375q0.078125 0.15625 0.28125 0.3125q0.203125 0.140625 0.578125 0.296875q0.375 0.140625 0.984375 0.3125q0.640625 0.203125 1.09375 0.40625q0.453125 0.203125 0.71875 0.46875q0.28125 0.25 0.40625 0.578125q0.125 0.3125 0.125 0.734375zm8.4487 -2.0625q0 0.265625 -0.015625 0.453125q0 0.1875 -0.015625 0.34375l-5.171875 0q0 1.125 0.625 1.734375q0.640625 0.59375 1.828125 0.59375q0.3125 0 0.640625 -0.015625q0.328125 -0.03125 0.625 -0.0625q0.296875 -0.046875 0.5625 -0.09375q0.28125 -0.0625 0.515625 -0.140625l0 1.046875q-0.515625 0.15625 -1.171875 0.234375q-0.65625 0.09375 -1.359375 0.09375q-0.9375 0 -1.625 -0.25q-0.6875 -0.25 -1.125 -0.734375q-0.421875 -0.5 -0.640625 -1.203125q-0.203125 -0.703125 -0.203125 -1.59375q0 -0.78125 0.21875 -1.46875q0.21875 -0.703125 0.640625 -1.21875q0.4375 -0.53125 1.0625 -0.828125q0.625 -0.3125 1.421875 -0.3125q0.765625 0 1.359375 0.25q0.59375 0.234375 1.0 0.6875q0.40625 0.4375 0.609375 1.078125q0.21875 0.625 0.21875 1.40625zm-1.328125 -0.1875q0.015625 -0.484375 -0.109375 -0.890625q-0.109375 -0.40625 -0.359375 -0.703125q-0.234375 -0.296875 -0.609375 -0.453125q-0.359375 -0.171875 -0.84375 -0.171875q-0.421875 0 -0.765625 0.171875q-0.34375 0.15625 -0.59375 0.453125q-0.25 0.28125 -0.40625 0.703125q-0.140625 0.40625 -0.1875 0.890625l3.875 0zm3.464325 -3.109375l1.171875 0l0.03125 1.359375q0.65625 -0.78125 1.28125 -1.125q0.640625 -0.359375 1.28125 -0.359375q1.140625 0 1.734375 0.75q0.59375 0.734375 0.546875 2.1875l-1.296875 0q0.03125 -0.96875 -0.28125 -1.40625q-0.296875 -0.4375 -0.890625 -0.4375q-0.25 0 -0.515625 0.09375q-0.25 0.09375 -0.53125 0.296875q-0.265625 0.203125 -0.578125 0.515625q-0.3125 0.3125 -0.65625 0.765625l0 4.71875l-1.296875 0l0 -7.359375zm10.10495 -2.984375l-0.21875 3.421875l-1.1875 0l-0.21875 -3.421875l1.625 0zm2.84375 0l-0.203125 3.421875l-1.203125 0l-0.21875 -3.421875l1.625 0z" fill-rule="nonzero"></path><path fill="#000000" d="m210.5704 238.79997l-2.875 0l0 2.984375l-1.25 0l0 -2.984375l-2.890625 0l0 -1.109375l2.890625 0l0 -2.96875l1.25 0l0 2.96875l2.875 0l0 1.109375z" fill-rule="nonzero"></path><path fill="#000000" d="m89.15241 260.2375l-1.140625 0l-0.046875 -1.1875q-0.328125 0.375 -0.625 0.640625q-0.296875 0.25 -0.59375 0.40625q-0.28125 0.140625 -0.578125 0.203125q-0.296875 0.0625 -0.625 0.0625q-1.140625 0 -1.71875 -0.65625q-0.578125 -0.671875 -0.578125 -2.015625l0 -4.8125153l1.28125 0l0 4.7031403q0 1.703125 1.265625 1.703125q0.234375 0 0.453125 -0.0625q0.234375 -0.078125 0.46875 -0.25q0.25 -0.171875 0.53125 -0.46875q0.28125 -0.296875 0.640625 -0.734375l0 -4.8906403l1.265625 0l0 7.3593903zm7.97995 -2.0q0 0.375 -0.140625 0.6875q-0.125 0.3125 -0.359375 0.546875q-0.21875 0.234375 -0.53125 0.40625q-0.296875 0.171875 -0.640625 0.28125q-0.328125 0.109375 -0.6875 0.15625q-0.359375 0.046875 -0.703125 0.046875q-0.75 0 -1.375 -0.0625q-0.625 -0.0625 -1.234375 -0.203125l0 -1.171875q0.65625 0.171875 1.28125 0.28125q0.640625 0.09375 1.265625 0.09375q0.921875 0 1.359375 -0.25q0.4375 -0.25 0.4375 -0.71875q0 -0.203125 -0.078125 -0.359375q-0.0625 -0.15625 -0.25 -0.296875q-0.171875 -0.140625 -0.5625 -0.296875q-0.375 -0.15625 -1.046875 -0.34375q-0.5 -0.15625 -0.921875 -0.34375q-0.421875 -0.1875 -0.734375 -0.4375q-0.296875 -0.25 -0.484375 -0.59376526q-0.171875 -0.34375 -0.171875 -0.8125q0 -0.3125 0.140625 -0.671875q0.15625 -0.375 0.5 -0.6875q0.34375 -0.3125 0.921875 -0.515625q0.59375 -0.21875 1.46875 -0.21875q0.4375 0 0.953125 0.046875q0.53125 0.046875 1.109375 0.171875l0 1.125q-0.609375 -0.140625 -1.15625 -0.203125q-0.53125 -0.078125 -0.921875 -0.078125q-0.46875 0 -0.796875 0.078125q-0.328125 0.0625 -0.53125 0.203125q-0.203125 0.125 -0.296875 0.296875q-0.078125 0.171875 -0.078125 0.359375q0 0.203125 0.078125 0.375q0.078125 0.15625 0.28125 0.3125q0.203125 0.140625 0.578125 0.296875q0.375 0.140625 0.984375 0.31251526q0.640625 0.203125 1.09375 0.40625q0.453125 0.203125 0.71875 0.46875q0.28125 0.25 0.40625 0.578125q0.125 0.3125 0.125 0.734375zm8.4487 -2.0625q0 0.265625 -0.015625 0.453125q0 0.1875 -0.015625 0.34375l-5.171875 0q0 1.125 0.625 1.734375q0.640625 0.59375 1.828125 0.59375q0.3125 0 0.640625 -0.015625q0.328125 -0.03125 0.625 -0.0625q0.296875 -0.046875 0.5625 -0.09375q0.28125 -0.0625 0.515625 -0.140625l0 1.046875q-0.515625 0.15625 -1.171875 0.234375q-0.65625 0.09375 -1.359375 0.09375q-0.9375 0 -1.625 -0.25q-0.6875 -0.25 -1.125 -0.734375q-0.421875 -0.5 -0.640625 -1.203125q-0.203125 -0.703125 -0.203125 -1.59375q0 -0.78126526 0.21875 -1.4687653q0.21875 -0.703125 0.640625 -1.21875q0.4375 -0.53125 1.0625 -0.828125q0.625 -0.3125 1.421875 -0.3125q0.765625 0 1.359375 0.25q0.59375 0.234375 1.0 0.6875q0.40625 0.4375 0.609375 1.078125q0.21875 0.625 0.21875 1.4062653zm-1.328125 -0.18751526q0.015625 -0.484375 -0.109375 -0.890625q-0.109375 -0.40625 -0.359375 -0.703125q-0.234375 -0.296875 -0.609375 -0.453125q-0.359375 -0.171875 -0.84375 -0.171875q-0.421875 0 -0.765625 0.171875q-0.34375 0.15625 -0.59375 0.453125q-0.25 0.28125 -0.40625 0.703125q-0.140625 0.40625 -0.1875 0.890625l3.875 0zm3.464325 -3.109375l1.171875 0l0.03125 1.359375q0.65625 -0.78125 1.28125 -1.125q0.640625 -0.359375 1.28125 -0.359375q1.140625 0 1.734375 0.75q0.59375 0.734375 0.546875 2.1875l-1.296875 0q0.03125 -0.96875 -0.28125 -1.40625q-0.296875 -0.4375 -0.890625 -0.4375q-0.25 0 -0.515625 0.09375q-0.25 0.09375 -0.53125 0.296875q-0.265625 0.203125 -0.578125 0.515625q-0.3125 0.3125 -0.65625 0.765625l0 4.7187653l-1.296875 0l0 -7.3593903zm10.651825 5.0468903q0.25 0 0.46875 0.109375q0.234375 0.09375 0.390625 0.265625q0.171875 0.15625 0.265625 0.390625q0.09375 0.21875 0.09375 0.46875q0 0.25 -0.09375 0.46875q-0.09375 0.21875 -0.265625 0.390625q-0.15625 0.15625 -0.390625 0.25q-0.21875 0.09375 -0.46875 0.09375q-0.25 0 -0.46875 -0.09375q-0.21875 -0.09375 -0.390625 -0.25q-0.15625 -0.171875 -0.265625 -0.390625q-0.09375 -0.21875 -0.09375 -0.46875q0 -0.25 0.09375 -0.46875q0.109375 -0.234375 0.265625 -0.390625q0.171875 -0.171875 0.390625 -0.265625q0.21875 -0.109375 0.46875 -0.109375zm5.16745 -5.0468903l1.140625 0l0.046875 1.1875q0.328125 -0.375 0.625 -0.625q0.296875 -0.25 0.578125 -0.40625q0.296875 -0.15625 0.59375 -0.21875q0.296875 -0.0625 0.625 -0.0625q1.1406174 0 1.7187424 0.671875q0.578125 0.671875 0.578125 2.015625l0 4.7968903l-1.265625 0l0 -4.6875153q0 -0.875 -0.32811737 -1.28125q-0.328125 -0.421875 -0.953125 -0.421875q-0.234375 0 -0.46875 0.078125q-0.21875 0.0625 -0.46875 0.234375q-0.234375 0.171875 -0.515625 0.46875q-0.28125 0.296875 -0.625 0.734375l0 4.8750153l-1.28125 0l0 -7.3593903zm12.776817 7.3593903l-0.03125 -0.984375q-0.59375 0.59375 -1.21875 0.859375q-0.609375 0.25 -1.296875 0.25q-0.625 0 -1.078125 -0.15625q-0.4375 -0.15625 -0.734375 -0.4375q-0.28125 -0.28125 -0.421875 -0.65625q-0.140625 -0.390625 -0.140625 -0.84375q0 -1.09375 0.828125 -1.71875q0.828125 -0.64064026 2.4375 -0.64064026l1.515625 0l0 -0.640625q0 -0.65625 -0.421875 -1.046875q-0.40625 -0.390625 -1.265625 -0.390625q-0.625 0 -1.234375 0.140625q-0.59375 0.140625 -1.234375 0.40625l0 -1.15625q0.234375 -0.09375 0.53125 -0.171875q0.296875 -0.078125 0.625 -0.140625q0.328125 -0.078125 0.6875 -0.109375q0.359375 -0.046875 0.734375 -0.046875q0.65625 0 1.1875 0.15625q0.546875 0.140625 0.90625 0.4375q0.375 0.296875 0.5625 0.75q0.203125 0.453125 0.203125 1.078125l0 5.0625153l-1.140625 0zm-0.140625 -3.34375l-1.609375 0q-0.484375 0 -0.828125 0.09375q-0.34375 0.09375 -0.5625 0.265625q-0.21875 0.171875 -0.328125 0.421875q-0.09375 0.25 -0.09375 0.5625q0 0.203125 0.0625 0.40625q0.0625 0.1875 0.203125 0.34375q0.15625 0.140625 0.390625 0.234375q0.234375 0.078125 0.5625 0.078125q0.4375 0 1.0 -0.265625q0.578125 -0.265625 1.203125 -0.84375l0 -1.296875zm8.72995 3.34375l0 -5.2812653q0 -0.34375 -0.03125 -0.5625q-0.03125 -0.21875 -0.09375 -0.34375q-0.046875 -0.140625 -0.125 -0.1875q-0.078125 -0.046875 -0.203125 -0.046875q-0.15625 0 -0.28125 0.09375q-0.125 0.078125 -0.265625 0.28125q-0.140625 0.1875 -0.3125 0.515625q-0.171875 0.328125 -0.40625 0.8125l0 4.7187653l-1.171875 0l0 -5.1406403q0 -0.40625 -0.03125 -0.65625q-0.015625 -0.25 -0.078125 -0.390625q-0.046875 -0.140625 -0.140625 -0.1875q-0.078125 -0.046875 -0.203125 -0.046875q-0.140625 0 -0.265625 0.078125q-0.109375 0.0625 -0.25 0.265625q-0.140625 0.1875 -0.3125 0.515625q-0.171875 0.328125 -0.421875 0.84375l0 4.7187653l-1.171875 0l0 -7.3593903l0.984375 0l0.046875 1.40625q0.1875 -0.421875 0.359375 -0.703125q0.1875 -0.296875 0.375 -0.46875q0.203125 -0.1875 0.40625 -0.265625q0.21875 -0.09375 0.484375 -0.09375q0.59375 0 0.90625 0.390625q0.3125 0.390625 0.3125 1.203125q0.171875 -0.390625 0.34375 -0.6875q0.171875 -0.296875 0.359375 -0.484375q0.1875 -0.203125 0.421875 -0.3125q0.234375 -0.109375 0.546875 -0.109375q1.390625 0 1.390625 2.125l0 5.3593903l-1.171875 0zm9.026825 -4.0625q0 0.265625 -0.015625 0.453125q0 0.1875 -0.015625 0.34375l-5.171875 0q0 1.125 0.625 1.734375q0.640625 0.59375 1.828125 0.59375q0.3125 0 0.640625 -0.015625q0.328125 -0.03125 0.625 -0.0625q0.296875 -0.046875 0.5625 -0.09375q0.28125 -0.0625 0.515625 -0.140625l0 1.046875q-0.515625 0.15625 -1.171875 0.234375q-0.65625 0.09375 -1.359375 0.09375q-0.9375 0 -1.625 -0.25q-0.6875 -0.25 -1.125 -0.734375q-0.421875 -0.5 -0.640625 -1.203125q-0.203125 -0.703125 -0.203125 -1.59375q0 -0.78126526 0.21875 -1.4687653q0.21875 -0.703125 0.640625 -1.21875q0.4375 -0.53125 1.0625 -0.828125q0.625 -0.3125 1.421875 -0.3125q0.765625 0 1.359375 0.25q0.59375 0.234375 1.0 0.6875q0.40625 0.4375 0.609375 1.078125q0.21875 0.625 0.21875 1.4062653zm-1.328125 -0.18751526q0.015625 -0.484375 -0.109375 -0.890625q-0.109375 -0.40625 -0.359375 -0.703125q-0.234375 -0.296875 -0.609375 -0.453125q-0.359375 -0.171875 -0.84375 -0.171875q-0.421875 0 -0.765625 0.171875q-0.34375 0.15625 -0.59375 0.453125q-0.25 0.28125 -0.40625 0.703125q-0.140625 0.40625 -0.1875 0.890625l3.875 0zm4.66745 -6.65625q3.375 3.125 3.375 6.9531403q0 0.796875 -0.15625 1.65625q-0.15625 0.84375 -0.546875 1.734375q-0.390625 0.890625 -1.046875 1.796875q-0.65625 0.921875 -1.65625 1.84375l-0.734375 -0.75q1.421875 -1.421875 2.125 -2.953125q0.703125 -1.546875 0.703125 -3.234375q0 -3.4843903 -2.828125 -6.2656403l0.765625 -0.78125zm7.214325 12.406265q0.375 0.015625 0.71875 -0.0625q0.359375 -0.078125 0.625 -0.234375q0.265625 -0.15625 0.421875 -0.390625q0.171875 -0.234375 0.171875 -0.546875q0 -0.296875 -0.109375 -0.484375q-0.109375 -0.203125 -0.25 -0.359375q-0.125 -0.15625 -0.234375 -0.34375q-0.09375 -0.1875 -0.09375 -0.484375q0 -0.15625 0.046875 -0.328125q0.0625 -0.171875 0.1875 -0.3125q0.125 -0.140625 0.3125 -0.21875q0.1875 -0.09375 0.4375 -0.09375q0.265625 0 0.5 0.109375q0.234375 0.109375 0.40625 0.328125q0.1875 0.21875 0.296875 0.546875q0.109375 0.328125 0.109375 0.78125q0 0.59375 -0.234375 1.15625q-0.21875 0.5625 -0.671875 1.0q-0.4375 0.4375 -1.109375 0.6875q-0.65625 0.25 -1.53125 0.25l0 -1.0zm2.296875 -8.98439q0.21875 0 0.421875 0.09375q0.21875 0.09375 0.359375 0.25q0.15625 0.140625 0.25 0.359375q0.09375 0.203125 0.09375 0.421875q0 0.234375 -0.09375 0.4375q-0.09375 0.203125 -0.25 0.359375q-0.140625 0.15625 -0.359375 0.25q-0.203125 0.078125 -0.421875 0.078125q-0.234375 0 -0.4375 -0.078125q-0.203125 -0.09375 -0.359375 -0.25q-0.15625 -0.15625 -0.25 -0.359375q-0.078125 -0.203125 -0.078125 -0.4375q0 -0.21875 0.078125 -0.421875q0.09375 -0.21875 0.25 -0.359375q0.15625 -0.15625 0.359375 -0.25q0.203125 -0.09375 0.4375 -0.09375z" fill-rule="nonzero"></path><path fill="#000000" fill-opacity="0.0" d="m125.6601 72.86352l-68.25197 37.70079" fill-rule="evenodd"></path><path stroke="#000000" stroke-width="1.0" stroke-linejoin="round" stroke-linecap="butt" d="m125.6601 72.86352l-65.25211 36.04374" fill-rule="evenodd"></path><path fill="#000000" stroke="#000000" stroke-width="1.0" stroke-linecap="butt" d="m60.40799 108.90726l0.44063568 -1.5281448l-2.1608315 2.4783401l3.2483368 -0.50955963z" fill-rule="evenodd"></path><path fill="#000000" fill-opacity="0.0" d="m125.6601 72.86352l0.724411 126.83465" fill-rule="evenodd"></path><path stroke="#000000" stroke-width="1.0" stroke-linejoin="round" stroke-linecap="butt" d="m125.6601 72.86352l0.6901474 120.834755" fill-rule="evenodd"></path><path fill="#000000" stroke="#000000" stroke-width="1.0" stroke-linecap="butt" d="m124.69854 193.70769l1.6776276 4.528595l1.6257858 -4.547455z" fill-rule="evenodd"></path><path fill="#000000" fill-opacity="0.0" d="m57.40551 162.00262l68.97638 37.70079" fill-rule="evenodd"></path><path stroke="#000000" stroke-width="1.0" stroke-linejoin="round" stroke-linecap="butt" d="m57.40551 162.00262l63.711494 34.82312" fill-rule="evenodd"></path><path fill="#000000" stroke="#000000" stroke-width="1.0" stroke-linecap="butt" d="m120.324814 198.27512l4.7742844 0.7271576l-3.189911 -3.625885z" fill-rule="evenodd"></path></g></svg>

